<svg xmlns="http://www.w3.org/2000/svg" width="17.217" height="23.636" viewBox="0 0 17.217 23.636">
  <path id="Tracciato_1929" data-name="Tracciato 1929" d="M3271.056,1310.008v-2.949a3.563,3.563,0,0,0-3.56-3.559h-4.276a3.563,3.563,0,0,0-3.559,3.559v2.949a3.72,3.72,0,0,0-2.911,3.63v9.777a3.72,3.72,0,0,0,3.72,3.72h9.777a3.72,3.72,0,0,0,3.72-3.72v-9.777A3.72,3.72,0,0,0,3271.056,1310.008Zm-4.429,9.825v1.431a1.194,1.194,0,1,1-2.389,0v-1.431a2.289,2.289,0,1,1,2.389,0Zm1.941-9.914h-6.419v-2.86a1.072,1.072,0,0,1,1.071-1.071h4.276a1.073,1.073,0,0,1,1.072,1.071Z" transform="translate(-3256.75 -1303.5)" fill="#04521f"/>
</svg>
